# xmcd
#
# Track frame offsets:
#	150
#	13405
#	33040
#	73502
#	120027
#	160875
#	204487
#
# Disc length: 3009 seconds
#
# Revision: 1
# Processed by: cddbd v1.5.1PL0 Copyright (c) Steve Scherf et al.
# Submitted via: CDex 1.50Beta5
#
DISCID=4f0bbf07
DTITLE=Various Artist - 爆れつハンター?ザ・マンスリー・コレクション 5th Season
DYEAR=1900
DGENRE=Anime
TTITLE0=あかほりさとる大先生の華麗なる野望・決戦編
TTITLE1=まともじゃないかも
TTITLE2=第16話「プレゼントに願いを込めて」
TTITLE3=第17話「イブイブの夜に愛を込めて」
TTITLE4=第18話「イブの夜に嫉妬を込めて」
TTITLE5=第19話「聖なる夜に想いを込めて」
TTITLE6=あかほりさとる大先生の華麗なる野望・完結編
EXTD=
EXTT0=
EXTT1=
EXTT2=
EXTT3=
EXTT4=
EXTT5=
EXTT6=
PLAYORDER=
